<?xml version="1.0" encoding="UTF-8" standalone="no"?>
<svg
   xmlns:dc="http://purl.org/dc/elements/1.1/"
   xmlns:cc="http://creativecommons.org/ns#"
   xmlns:rdf="http://www.w3.org/1999/02/22-rdf-syntax-ns#"
   xmlns:svg="http://www.w3.org/2000/svg"
   xmlns="http://www.w3.org/2000/svg"
   xmlns:sodipodi="http://sodipodi.sourceforge.net/DTD/sodipodi-0.dtd"
   xmlns:inkscape="http://www.inkscape.org/namespaces/inkscape"
   enable-background="new 0 0 48 48"
   height="56.12878"
   id="Layer_1"
   version="1.1"
   viewBox="0 0 56.12878 56.12878"
   width="56.12878"
   xml:space="preserve"
   inkscape:version="0.91 r13725"
   sodipodi:docname="1488171095_29.Mac.svg"><metadata
     id="metadata9"><rdf:RDF><cc:Work
         rdf:about=""><dc:format>image/svg+xml</dc:format><dc:type
           rdf:resource="http://purl.org/dc/dcmitype/StillImage" /><dc:title></dc:title></cc:Work></rdf:RDF></metadata><defs
     id="defs7" /><sodipodi:namedview
     pagecolor="#ffffff"
     bordercolor="#666666"
     borderopacity="1"
     objecttolerance="10"
     gridtolerance="10"
     guidetolerance="10"
     inkscape:pageopacity="0"
     inkscape:pageshadow="2"
     inkscape:window-width="1280"
     inkscape:window-height="710"
     id="namedview5"
     showgrid="false"
     showborder="false"
     inkscape:zoom="9.8333333"
     inkscape:cx="8.0018141"
     inkscape:cy="22.585509"
     inkscape:window-x="0"
     inkscape:window-y="0"
     inkscape:window-maximized="1"
     inkscape:current-layer="Layer_1" /><path
     d="m 4.50479,44.433017 12.095907,0 c -0.521338,2.822635 -2.254457,4.764532 -3.856146,5.985594 l -2.106378,0 c -0.484538,0 -0.876198,0.382222 -0.876198,0.855084 0,0.472862 0.39166,0.855085 0.876198,0.855085 l 21.02874,0 c 0.484537,0 0.876197,-0.382223 0.876197,-0.855085 0,-0.472862 -0.39166,-0.855084 -0.876197,-0.855084 l -2.105503,0 c -1.600813,-1.221062 -3.335684,-3.162959 -3.856145,-5.985594 l 12.09503,0 c 1.93552,0 3.50479,-1.531456 3.50479,-3.420339 l 0,-19.666949 c 0,-1.888882 -1.56927,-3.420339 -3.50479,-3.420339 l -33.295505,0 C 2.56927,17.92539 1,19.456847 1,21.345729 l 0,19.666949 c 0,1.888883 1.56927,3.420339 3.50479,3.420339 z m 22.433285,5.985594 -11.570188,0 c 1.397535,-1.438253 2.641735,-3.399817 3.030767,-5.985594 l 5.508654,0 c 0.389031,2.585777 1.633232,4.547341 3.030767,5.985594 z M 2.752395,21.345729 c 0,-0.944013 0.785073,-1.710169 1.752395,-1.710169 l 33.295505,0 c 0.967322,0 1.752395,0.766156 1.752395,1.710169 l 0,16.24661 0,0 -36.800295,0 0,-16.24661 z m 0,17.95678 36.800295,0 0,0 0,1.710169 c 0,0.944014 -0.785073,1.71017 -1.752395,1.71017 l -12.266765,0 0,0 -8.761975,0 0,0 -12.266765,0 c -0.967322,0 -1.752395,-0.766156 -1.752395,-1.71017 l 0,-1.710169 z m 18.400148,2.565254 c 0.484537,0 0.876197,-0.382223 0.876197,-0.855085 0,-0.472862 -0.39166,-0.855084 -0.876197,-0.855084 -0.484538,0 -0.876198,0.382222 -0.876198,0.855084 0,0.472862 0.39166,0.855085 0.876198,0.855085 z"
     id="path3"
     inkscape:connector-curvature="0"
     style="clip-rule:evenodd;fill:#0088aa;fill-rule:evenodd" /><g
     id="g3460"
     transform="matrix(0.21663136,0,0,0.21663136,10.994027,22.649713)"><path
       id="path3462"
       d="M 29.125,44.5 C 28.64,44.5 28.182,44.265 27.9,43.865 L 17.617,29.308 9.832,34.498 c -0.69,0.46 -1.621,0.273 -2.08,-0.416 -0.459,-0.689 -0.273,-1.62 0.416,-2.08 l 9,-6 c 0.675,-0.45 1.588,-0.281 2.057,0.383 l 9.733,13.779 10.724,-19.755 c 0.242,-0.445 0.693,-0.739 1.199,-0.779 0.506,-0.038 0.998,0.177 1.308,0.58 l 13,16.875 c 0.505,0.656 0.383,1.598 -0.273,2.104 -0.656,0.505 -1.597,0.384 -2.104,-0.273 L 41.219,23.866 30.444,43.716 c -0.248,0.455 -0.712,0.751 -1.23,0.781 -0.03,0.002 -0.06,0.003 -0.089,0.003 z"
       inkscape:connector-curvature="0"
       style="fill:#ffffff" /></g><g
     id="g3464"
     transform="matrix(0.21663136,0,0,0.21663136,8.6848298,22.649713)"><circle
       id="circle3466"
       r="4.375"
       cy="23.125"
       cx="41"
       style="fill:#c75c5c" /></g><g
     id="g3468"
     style="opacity:0.2"
     transform="matrix(0.38016684,0,0,0.38016684,1.9177393,19.113109)"><g
       id="g3470"><path
         id="path3472"
         d="M 29.125,46.5 C 28.64,46.5 28.182,46.265 27.9,45.865 L 17.617,31.308 9.832,36.498 C 9.142,36.957 8.211,36.77 7.752,36.082 7.293,35.393 7.479,34.461 8.168,34.002 l 9,-6 c 0.676,-0.453 1.588,-0.281 2.057,0.383 L 28.958,42.164 39.682,22.41 c 0.242,-0.446 0.693,-0.739 1.199,-0.779 0.505,-0.042 0.998,0.178 1.308,0.58 l 13,16.875 c 0.505,0.656 0.383,1.598 -0.273,2.104 -0.656,0.506 -1.597,0.384 -2.104,-0.273 L 41.219,25.867 30.443,45.716 c -0.248,0.456 -0.712,0.751 -1.23,0.782 -0.029,0.001 -0.059,0.002 -0.088,0.002 z"
         inkscape:connector-curvature="0"
         style="fill:#231f20" /></g></g><g
     id="g3474"
     transform="matrix(0.38016542,0,0,0.38016542,1.9178185,19.440244)"
     style="fill:#ff9955"><path
       id="path3476"
       d="M 29.125,44.5 C 28.64,44.5 28.182,44.265 27.9,43.865 L 17.617,29.308 9.832,34.498 c -0.69,0.46 -1.621,0.273 -2.08,-0.416 -0.459,-0.689 -0.273,-1.62 0.416,-2.08 l 9,-6 c 0.675,-0.45 1.588,-0.281 2.057,0.383 l 9.733,13.779 10.724,-19.755 c 0.242,-0.445 0.693,-0.739 1.199,-0.779 0.506,-0.038 0.998,0.177 1.308,0.58 l 13,16.875 c 0.505,0.656 0.383,1.598 -0.273,2.104 -0.656,0.505 -1.597,0.384 -2.104,-0.273 L 41.219,23.866 30.444,43.716 c -0.248,0.455 -0.712,0.751 -1.23,0.781 -0.03,0.002 -0.06,0.003 -0.089,0.003 z"
       inkscape:connector-curvature="0"
       style="fill:#ff9955" /></g><g
     id="g3478"
     style="opacity:0.2"
     transform="matrix(0.21663136,0,0,0.21663136,8.6848298,22.649713)"><circle
       id="circle3480"
       r="4.375"
       cy="25.125"
       cx="41"
       style="fill:#231f20" /></g><g
     id="g3482"
     transform="matrix(0.21663136,0,0,0.21663136,8.6848298,22.649713)"
     style="fill:#0088aa"><circle
       id="circle3484"
       r="4.375"
       cy="23.125"
       cx="41"
       style="fill:#0088aa" /></g><g
     id="Layer_2"
     transform="matrix(0.21663136,0,0,0.21663136,14.451654,21.327679)" /></svg>